<svg width="99" height="98" viewBox="0 0 99 98" fill="none" xmlns="http://www.w3.org/2000/svg">
<path d="M26.5518 39.2816H47.9893C49.6634 39.2816 51.0518 37.8933 51.0518 36.2191C51.0518 34.5449 49.6634 33.1566 47.9893 33.1566H26.5518C24.8776 33.1566 23.4893 34.5449 23.4893 36.2191C23.4893 37.8933 24.8368 39.2816 26.5518 39.2816Z" fill="#4381C1"/>
<path d="M63.3028 42.3851C62.5269 42.3851 61.7511 42.0992 61.1386 41.4867L58.0761 38.4242C56.8919 37.2401 56.8919 35.2801 58.0761 34.0959C59.2603 32.9117 61.2203 32.9117 62.4044 34.0959L63.3028 34.9942L70.3261 27.9709C71.5103 26.7867 73.4703 26.7867 74.6544 27.9709C75.8386 29.1551 75.8386 31.1151 74.6544 32.2992L65.4669 41.4867C64.8953 42.0584 64.1194 42.3851 63.3028 42.3851Z" fill="#4381C1"/>
<path d="M26.5518 67.865H47.9893C49.6634 67.865 51.0518 66.4767 51.0518 64.8025C51.0518 63.1283 49.6634 61.74 47.9893 61.74H26.5518C24.8776 61.74 23.4893 63.1283 23.4893 64.8025C23.4893 66.4767 24.8368 67.865 26.5518 67.865Z" fill="#4381C1"/>
<path d="M63.3028 70.9683C62.5269 70.9683 61.7511 70.6825 61.1386 70.07L58.0761 67.0075C56.8919 65.8233 56.8919 63.8633 58.0761 62.6791C59.2603 61.495 61.2203 61.495 62.4044 62.6791L63.3028 63.5775L70.3261 56.5541C71.5103 55.37 73.4703 55.37 74.6544 56.5541C75.8386 57.7383 75.8386 59.6983 74.6544 60.8825L65.4669 70.07C64.8953 70.6416 64.1194 70.9683 63.3028 70.9683Z" fill="#4381C1"/>
<path d="M37.2502 92.8958H61.7502C83.9227 92.8958 93.396 83.4225 93.396 61.25V36.75C93.396 14.5775 83.9227 5.10413 61.7502 5.10413H37.2502C15.0777 5.10413 5.60432 14.5775 5.60432 36.75V61.25C5.60432 83.4225 15.0777 92.8958 37.2502 92.8958ZM61.7502 11.2291C80.5743 11.2291 87.271 17.9258 87.271 36.75V61.25C87.271 80.0741 80.5743 86.7708 61.7502 86.7708H37.2502C18.426 86.7708 11.7293 80.0741 11.7293 61.25V36.75C11.7293 17.9258 18.426 11.2291 37.2502 11.2291H61.7502Z" fill="#4381C1"/>
</svg>
