<svg width="32" height="32" viewBox="0 0 32 32" fill="none" xmlns="http://www.w3.org/2000/svg">
<g clip-path="url(#clip0_77_3941)">
<path d="M31.1205 16.2993C31.1205 14.9883 31.0146 14.0316 30.7853 13.0395H15.8779V18.9568H24.6282C24.4519 20.4273 23.4992 22.6419 21.3822 24.1301L21.3525 24.3282L26.0659 27.9951L26.3925 28.0278C29.3916 25.2463 31.1205 21.1537 31.1205 16.2993Z" fill="#4285F4"/>
<path d="M15.8775 31.8901C20.1644 31.8901 23.7633 30.4727 26.392 28.0279L21.3817 24.1301C20.041 25.0691 18.2414 25.7246 15.8775 25.7246C11.6787 25.7246 8.1151 22.9432 6.84476 19.0986L6.65856 19.1145L1.75745 22.9236L1.69336 23.1025C4.30433 28.3112 9.66748 31.8901 15.8775 31.8901Z" fill="#34A853"/>
<path d="M6.84499 19.0986C6.5098 18.1065 6.31581 17.0434 6.31581 15.945C6.31581 14.8465 6.5098 13.7835 6.82735 12.7914L6.81847 12.5801L1.85595 8.70984L1.69358 8.7874C0.617473 10.9489 0 13.3761 0 15.945C0 18.5139 0.617473 20.941 1.69358 23.1025L6.84499 19.0986Z" fill="#FBBC05"/>
<path d="M15.8775 6.16537C18.8589 6.16537 20.87 7.45869 22.0168 8.53948L26.4978 4.14571C23.7458 1.57679 20.1644 0 15.8775 0C9.66748 0 4.30433 3.57875 1.69336 8.78742L6.82713 12.7915C8.1151 8.94693 11.6787 6.16537 15.8775 6.16537Z" fill="#EB4335"/>
</g>
<defs>
<clipPath id="clip0_77_3941">
<rect width="31.1351" height="32" fill="white"/>
</clipPath>
</defs>
</svg>
