<svg width="119" height="31" viewBox="0 0 119 31" fill="none" xmlns="http://www.w3.org/2000/svg">
<g clip-path="url(#clip0_209_4868)">
<path d="M6.59403 21.1343C6.27147 21.1343 6.02176 21.0464 5.84492 20.8708C5.67842 20.6848 5.59521 20.4316 5.59521 20.1113V11.0903C5.59521 10.7596 5.68364 10.5116 5.86053 10.3463C6.03737 10.1706 6.28707 10.0828 6.60964 10.0828H10.3708C11.5777 10.0828 12.5089 10.3721 13.1644 10.9508C13.8199 11.5191 14.1476 12.3199 14.1476 13.3533C14.1476 14.0249 13.9967 14.6036 13.695 15.0893C13.4037 15.5749 12.9771 15.9469 12.4153 16.2053C11.8534 16.4636 11.1719 16.5928 10.3708 16.5928L10.5113 16.3603H11.0263C11.4528 16.3603 11.8222 16.4636 12.1344 16.6703C12.4569 16.8769 12.7378 17.2024 12.9771 17.6468L14.1476 19.8013C14.2725 20.0183 14.3297 20.2301 14.3193 20.4368C14.3088 20.6434 14.2308 20.8139 14.0852 20.9483C13.9395 21.0723 13.7262 21.1343 13.4453 21.1343C13.1644 21.1343 12.9355 21.0774 12.7586 20.9638C12.5817 20.8398 12.4257 20.6538 12.2904 20.4058L10.7142 17.5228C10.5269 17.1714 10.3032 16.9389 10.0431 16.8253C9.79338 16.7013 9.47081 16.6393 9.07548 16.6393H7.59285V20.1113C7.59285 20.4316 7.5096 20.6848 7.34315 20.8708C7.17665 21.0464 6.92694 21.1343 6.59403 21.1343ZM7.59285 15.1668H10.0275C10.7454 15.1668 11.2864 15.0221 11.6506 14.7328C12.0251 14.4331 12.2124 13.9888 12.2124 13.3998C12.2124 12.8211 12.0251 12.3871 11.6506 12.0978C11.2864 11.7981 10.7454 11.6483 10.0275 11.6483H7.59285V15.1668Z" fill="white"/>
<path d="M19.6704 21.1653C18.8068 21.1653 18.0629 21.0051 17.4386 20.6848C16.8144 20.3644 16.3305 19.9098 15.9872 19.3208C15.6543 18.7318 15.4878 18.0343 15.4878 17.2283C15.4878 16.4429 15.6491 15.7558 15.9716 15.1668C16.3046 14.5778 16.7571 14.1179 17.3294 13.7873C17.912 13.4463 18.5727 13.2758 19.3114 13.2758C19.8525 13.2758 20.3363 13.3636 20.7628 13.5393C21.1998 13.7149 21.5692 13.9681 21.8709 14.2988C22.183 14.6294 22.4171 15.0324 22.5732 15.5078C22.7397 15.9728 22.8229 16.4998 22.8229 17.0888C22.8229 17.2748 22.7553 17.4194 22.62 17.5228C22.4951 17.6158 22.3131 17.6623 22.0738 17.6623H17.0641V16.5463H21.4495L21.1998 16.7788C21.1998 16.3034 21.127 15.9056 20.9813 15.5853C20.8461 15.2649 20.6432 15.0221 20.3726 14.8568C20.1126 14.6811 19.7848 14.5933 19.3894 14.5933C18.9524 14.5933 18.5779 14.6966 18.2658 14.9033C17.9641 15.0996 17.73 15.3838 17.5635 15.7558C17.4074 16.1174 17.3294 16.5514 17.3294 17.0578V17.1663C17.3294 18.0136 17.5271 18.6491 17.9224 19.0728C18.3282 19.4861 18.9212 19.6928 19.7016 19.6928C19.9721 19.6928 20.2738 19.6618 20.6067 19.5998C20.9501 19.5274 21.2727 19.4086 21.5744 19.2433C21.7928 19.1193 21.9853 19.0676 22.1518 19.0883C22.3183 19.0986 22.4483 19.1554 22.542 19.2588C22.646 19.3621 22.7085 19.4913 22.7292 19.6463C22.7501 19.7909 22.7188 19.9408 22.6356 20.0958C22.5628 20.2508 22.4327 20.3851 22.2454 20.4988C21.8813 20.7261 21.4599 20.8966 20.9813 21.0103C20.5131 21.1136 20.0761 21.1653 19.6704 21.1653Z" fill="white"/>
<path d="M27.1611 21.1653C26.7136 21.1653 26.2403 21.1188 25.7409 21.0258C25.2414 20.9328 24.7941 20.7726 24.3987 20.5453C24.2322 20.4419 24.1126 20.3231 24.0397 20.1888C23.9773 20.0441 23.9513 19.9046 23.9617 19.7703C23.9825 19.6256 24.0345 19.5016 24.1178 19.3983C24.2114 19.2949 24.3258 19.2278 24.4611 19.1968C24.6068 19.1658 24.7628 19.1916 24.9293 19.2743C25.3455 19.4706 25.7356 19.6101 26.0998 19.6928C26.4639 19.7651 26.8229 19.8013 27.1767 19.8013C27.6761 19.8013 28.0454 19.7186 28.2847 19.5533C28.5344 19.3776 28.6593 19.1503 28.6593 18.8713C28.6593 18.6336 28.576 18.4528 28.4096 18.3288C28.2535 18.1944 28.0142 18.0963 27.6917 18.0343L26.131 17.7398C25.4859 17.6158 24.9917 17.3833 24.6484 17.0423C24.3154 16.6909 24.149 16.2414 24.149 15.6938C24.149 15.1978 24.2842 14.7689 24.5548 14.4073C24.8357 14.0456 25.2206 13.7666 25.7096 13.5703C26.1987 13.3739 26.7605 13.2758 27.3952 13.2758C27.853 13.2758 28.2795 13.3274 28.6749 13.4308C29.0807 13.5238 29.4708 13.6736 29.8454 13.8803C30.0015 13.9629 30.1055 14.0714 30.1575 14.2058C30.2199 14.3401 30.2355 14.4796 30.2043 14.6243C30.1731 14.7586 30.1107 14.8826 30.0171 14.9963C29.9234 15.0996 29.8038 15.1668 29.6581 15.1978C29.5229 15.2184 29.3668 15.1874 29.1899 15.1048C28.8674 14.9394 28.5553 14.8206 28.2535 14.7483C27.9622 14.6759 27.6812 14.6398 27.4108 14.6398C26.9009 14.6398 26.5212 14.7276 26.2715 14.9033C26.0322 15.0789 25.9125 15.3114 25.9125 15.6008C25.9125 15.8178 25.9853 15.9986 26.131 16.1433C26.2767 16.2879 26.5004 16.3861 26.8021 16.4378L28.3628 16.7323C29.039 16.8563 29.5489 17.0836 29.8922 17.4143C30.2459 17.7449 30.4228 18.1893 30.4228 18.7473C30.4228 19.5016 30.1263 20.0958 29.5333 20.5298C28.9402 20.9534 28.1494 21.1653 27.1611 21.1653Z" fill="white"/>
<path d="M34.7501 21.1653C34.1154 21.1653 33.59 21.0516 33.1738 20.8243C32.7577 20.5866 32.4455 20.2353 32.2374 19.7703C32.0397 19.3053 31.9409 18.7266 31.9409 18.0343V14.2833C31.9409 13.9526 32.0241 13.7098 32.1906 13.5548C32.3571 13.3894 32.5964 13.3068 32.9085 13.3068C33.2207 13.3068 33.4599 13.3894 33.6264 13.5548C33.8033 13.7098 33.8917 13.9526 33.8917 14.2833V18.0653C33.8917 18.6026 34.001 19.0004 34.2195 19.2588C34.438 19.5171 34.7865 19.6463 35.2651 19.6463C35.7854 19.6463 36.2119 19.4706 36.5449 19.1193C36.8778 18.7576 37.0443 18.2823 37.0443 17.6933V14.2833C37.0443 13.9526 37.1275 13.7098 37.294 13.5548C37.4604 13.3894 37.6997 13.3068 38.0119 13.3068C38.324 13.3068 38.5633 13.3894 38.7298 13.5548C38.9067 13.7098 38.9951 13.9526 38.9951 14.2833V20.1423C38.9951 20.8036 38.6777 21.1343 38.0431 21.1343C37.7413 21.1343 37.5072 21.0516 37.3408 20.8863C37.1743 20.7106 37.0911 20.4626 37.0911 20.1423V18.9643L37.3096 19.4293C37.0911 19.9873 36.7581 20.4161 36.3108 20.7158C35.8738 21.0154 35.3535 21.1653 34.7501 21.1653Z" fill="white"/>
<path d="M42.0247 21.1343C41.7126 21.1343 41.4733 21.0516 41.3068 20.8863C41.1404 20.7106 41.0571 20.4626 41.0571 20.1423V14.2833C41.0571 13.9629 41.1404 13.7201 41.3068 13.5548C41.4733 13.3894 41.7074 13.3068 42.0091 13.3068C42.3109 13.3068 42.545 13.3894 42.7114 13.5548C42.8779 13.7201 42.9611 13.9629 42.9611 14.2833V15.4148L42.7895 14.9498C42.9976 14.4331 43.3201 14.0249 43.7571 13.7253C44.194 13.4256 44.7143 13.2758 45.3177 13.2758C45.9316 13.2758 46.4362 13.4204 46.8316 13.7098C47.2269 13.9991 47.5026 14.4434 47.6587 15.0428H47.4402C47.6483 14.4951 47.9917 14.0663 48.4702 13.7563C48.9487 13.4359 49.5003 13.2758 50.1245 13.2758C50.7073 13.2758 51.1858 13.3894 51.5603 13.6168C51.9451 13.8441 52.2314 14.1903 52.4187 14.6553C52.606 15.1099 52.6996 15.6886 52.6996 16.3913V20.1423C52.6996 20.4626 52.6113 20.7106 52.4343 20.8863C52.268 21.0516 52.0285 21.1343 51.7164 21.1343C51.4043 21.1343 51.1648 21.0516 50.9985 20.8863C50.8322 20.7106 50.7488 20.4626 50.7488 20.1423V16.4688C50.7488 15.8901 50.6498 15.4664 50.4523 15.1978C50.265 14.9291 49.9426 14.7948 49.4847 14.7948C48.975 14.7948 48.5743 14.9756 48.283 15.3373C47.9917 15.6886 47.846 16.1794 47.846 16.8098V20.1423C47.846 20.4626 47.7628 20.7106 47.5963 20.8863C47.4298 21.0516 47.1905 21.1343 46.8784 21.1343C46.5662 21.1343 46.3218 21.0516 46.1449 20.8863C45.9784 20.7106 45.8952 20.4626 45.8952 20.1423V16.4688C45.8952 15.8901 45.7964 15.4664 45.5986 15.1978C45.4114 14.9291 45.0941 14.7948 44.6466 14.7948C44.1368 14.7948 43.7363 14.9756 43.4449 15.3373C43.1536 15.6886 43.0079 16.1794 43.0079 16.8098V20.1423C43.0079 20.8036 42.6802 21.1343 42.0247 21.1343Z" fill="white"/>
<path d="M58.4736 21.1653C57.6098 21.1653 56.8661 21.0051 56.2418 20.6848C55.6176 20.3644 55.1338 19.9098 54.7904 19.3208C54.4573 18.7318 54.291 18.0343 54.291 17.2283C54.291 16.4429 54.452 15.7558 54.7748 15.1668C55.1074 14.5778 55.56 14.1179 56.1326 13.7873C56.7149 13.4463 57.3757 13.2758 58.1146 13.2758C58.6555 13.2758 59.1393 13.3636 59.566 13.5393C60.003 13.7149 60.3722 13.9681 60.6741 14.2988C60.9862 14.6294 61.2203 15.0324 61.3764 15.5078C61.5427 15.9728 61.6261 16.4998 61.6261 17.0888C61.6261 17.2748 61.5583 17.4194 61.4232 17.5228C61.2984 17.6158 61.116 17.6623 60.877 17.6623H55.8673V16.5463H60.2527L60.003 16.7788C60.003 16.3034 59.9299 15.9056 59.7845 15.5853C59.6489 15.2649 59.4461 15.0221 59.1759 14.8568C58.9154 14.6811 58.5877 14.5933 58.1927 14.5933C57.7557 14.5933 57.3811 14.6966 57.069 14.9033C56.7671 15.0996 56.533 15.3838 56.3667 15.7558C56.2106 16.1174 56.1326 16.5514 56.1326 17.0578V17.1663C56.1326 18.0136 56.3301 18.6491 56.7256 19.0728C57.1314 19.4861 57.7245 19.6928 58.5048 19.6928C58.775 19.6928 59.0769 19.6618 59.41 19.5998C59.7533 19.5274 60.0757 19.4086 60.3776 19.2433C60.5961 19.1193 60.7882 19.0676 60.955 19.0883C61.1213 19.0986 61.2515 19.1554 61.3452 19.2588C61.4491 19.3621 61.5115 19.4913 61.5325 19.6463C61.5529 19.7909 61.5217 19.9408 61.4388 20.0958C61.3657 20.2508 61.2359 20.3851 61.0487 20.4988C60.6843 20.7261 60.263 20.8966 59.7845 21.0103C59.3163 21.1136 58.8793 21.1653 58.4736 21.1653Z" fill="white"/>
<path d="M71.4655 21.1342C71.1846 21.1342 70.9554 21.0671 70.7788 20.9327C70.612 20.7984 70.4769 20.5866 70.373 20.2972L67.1113 11.1367C66.9967 10.8061 67.0176 10.5271 67.1737 10.2997C67.34 10.0724 67.6156 9.95874 68.0008 9.95874C68.2818 9.95874 68.5003 10.0259 68.6563 10.1602C68.8124 10.2842 68.9372 10.4857 69.0309 10.7647L71.8401 19.0417H71.2158L74.1498 10.7802C74.2537 10.5012 74.3839 10.2946 74.54 10.1602C74.6961 10.0259 74.8989 9.95874 75.1486 9.95874C75.3984 9.95874 75.5959 10.0259 75.7417 10.1602C75.887 10.2946 76.0119 10.5064 76.1163 10.7957L78.9566 19.0417H78.4104L81.2664 10.7647C81.3601 10.4961 81.4849 10.2946 81.641 10.1602C81.797 10.0259 82.0102 9.95874 82.2809 9.95874C82.6135 9.95874 82.8583 10.0724 83.0144 10.2997C83.1704 10.5271 83.1909 10.8061 83.0768 11.1367L79.7838 20.3127C79.6794 20.5917 79.5443 20.7984 79.378 20.9327C79.2112 21.0671 78.9879 21.1342 78.7069 21.1342C78.426 21.1342 78.2022 21.0671 78.0359 20.9327C77.8691 20.7984 77.734 20.5866 77.6301 20.2972L74.9146 12.6092H75.2735L72.5268 20.3127C72.4224 20.5917 72.2873 20.7984 72.121 20.9327C71.9649 21.0671 71.7464 21.1342 71.4655 21.1342Z" fill="white"/>
<path d="M84.8816 21.1342C84.5593 21.1342 84.3096 21.0516 84.1325 20.8862C83.9662 20.7106 83.8828 20.4626 83.8828 20.1422V14.2832C83.8828 13.9629 83.9662 13.7201 84.1325 13.5547C84.2988 13.3894 84.5329 13.3067 84.8348 13.3067C85.1367 13.3067 85.3708 13.3894 85.5371 13.5547C85.7034 13.7201 85.7868 13.9629 85.7868 14.2832V15.2597H85.6307C85.7766 14.6397 86.0624 14.1696 86.4891 13.8492C86.9159 13.5289 87.4826 13.3377 88.1902 13.2757C88.4087 13.2551 88.5804 13.3119 88.7052 13.4462C88.8403 13.5702 88.9184 13.7666 88.9393 14.0352C88.9603 14.2936 88.8979 14.5054 88.7521 14.6707C88.617 14.8257 88.4087 14.9187 88.1278 14.9497L87.7845 14.9807C87.1499 15.0427 86.671 15.2391 86.3486 15.5697C86.0263 15.8901 85.8649 16.3447 85.8649 16.9337V20.1422C85.8649 20.4626 85.7814 20.7106 85.6151 20.8862C85.4488 21.0516 85.204 21.1342 84.8816 21.1342Z" fill="white"/>
<path d="M90.962 21.1188C90.6499 21.1188 90.4109 21.0258 90.2441 20.8398C90.0778 20.6538 89.9944 20.3955 89.9944 20.0648V14.3763C89.9944 14.0353 90.0778 13.777 90.2441 13.6013C90.4109 13.4153 90.6499 13.3223 90.962 13.3223C91.2741 13.3223 91.5136 13.4153 91.6799 13.6013C91.857 13.777 91.9452 14.0353 91.9452 14.3763V20.0648C91.9452 20.3955 91.8623 20.6538 91.6955 20.8398C91.5292 21.0258 91.2849 21.1188 90.962 21.1188ZM90.962 11.8808C90.5982 11.8808 90.3119 11.793 90.1037 11.6173C89.9061 11.4313 89.8071 11.1781 89.8071 10.8578C89.8071 10.5271 89.9061 10.274 90.1037 10.0983C90.3119 9.92259 90.5982 9.83478 90.962 9.83478C91.3366 9.83478 91.6229 9.92259 91.8204 10.0983C92.0184 10.274 92.1169 10.5271 92.1169 10.8578C92.1169 11.1781 92.0184 11.4313 91.8204 11.6173C91.6229 11.793 91.3366 11.8808 90.962 11.8808Z" fill="white"/>
<path d="M97.4682 21.1653C96.7917 21.1653 96.2245 21.0516 95.7671 20.8243C95.3194 20.5969 94.9867 20.2663 94.7682 19.8323C94.5497 19.3879 94.4405 18.8403 94.4405 18.1893V14.8878H93.629C93.3793 14.8878 93.1866 14.8258 93.0515 14.7018C92.9159 14.5674 92.8486 14.3866 92.8486 14.1593C92.8486 13.9216 92.9159 13.7408 93.0515 13.6168C93.1866 13.4928 93.3793 13.4308 93.629 13.4308H94.4405V12.0203C94.4405 11.6999 94.5234 11.4571 94.6902 11.2918C94.8668 11.1264 95.1116 11.0438 95.4237 11.0438C95.7358 11.0438 95.9748 11.1264 96.1416 11.2918C96.3079 11.4571 96.3913 11.6999 96.3913 12.0203V13.4308H98.0456C98.2953 13.4308 98.4875 13.4928 98.6231 13.6168C98.7582 13.7408 98.8259 13.9216 98.8259 14.1593C98.8259 14.3866 98.7582 14.5674 98.6231 14.7018C98.4875 14.8258 98.2953 14.8878 98.0456 14.8878H96.3913V18.0808C96.3913 18.5768 96.5006 18.9488 96.7191 19.1968C96.9376 19.4448 97.2911 19.5688 97.7803 19.5688C97.9569 19.5688 98.1129 19.5533 98.2485 19.5223C98.3836 19.4913 98.5031 19.4706 98.6075 19.4603C98.7323 19.4499 98.8362 19.4913 98.9196 19.5843C99.0025 19.6669 99.0444 19.8426 99.0444 20.1113C99.0444 20.3179 99.0079 20.5039 98.9352 20.6693C98.8728 20.8243 98.7528 20.9328 98.5762 20.9948C98.4407 21.0361 98.2641 21.0723 98.0456 21.1033C97.8271 21.1446 97.6345 21.1653 97.4682 21.1653Z" fill="white"/>
<path d="M103.647 21.1653C102.783 21.1653 102.039 21.0051 101.415 20.6848C100.791 20.3644 100.307 19.9098 99.9638 19.3208C99.6307 18.7318 99.4644 18.0343 99.4644 17.2283C99.4644 16.4429 99.6253 15.7558 99.9482 15.1668C100.281 14.5778 100.733 14.1179 101.306 13.7873C101.888 13.4463 102.549 13.2758 103.288 13.2758C103.829 13.2758 104.313 13.3636 104.739 13.5393C105.176 13.7149 105.546 13.9681 105.847 14.2988C106.16 14.6294 106.394 15.0324 106.55 15.5078C106.716 15.9728 106.799 16.4998 106.799 17.0888C106.799 17.2748 106.732 17.4194 106.597 17.5228C106.472 17.6158 106.289 17.6623 106.05 17.6623H101.041V16.5463H105.426L105.176 16.7788C105.176 16.3034 105.103 15.9056 104.958 15.5853C104.822 15.2649 104.619 15.0221 104.349 14.8568C104.089 14.6811 103.761 14.5933 103.366 14.5933C102.929 14.5933 102.554 14.6966 102.242 14.9033C101.94 15.0996 101.706 15.3838 101.54 15.7558C101.384 16.1174 101.306 16.5514 101.306 17.0578V17.1663C101.306 18.0136 101.503 18.6491 101.899 19.0728C102.305 19.4861 102.898 19.6928 103.678 19.6928C103.948 19.6928 104.25 19.6618 104.583 19.5998C104.927 19.5274 105.249 19.4086 105.551 19.2433C105.769 19.1193 105.962 19.0676 106.128 19.0883C106.295 19.0986 106.425 19.1554 106.519 19.2588C106.622 19.3621 106.685 19.4913 106.706 19.6463C106.726 19.7909 106.695 19.9408 106.612 20.0958C106.539 20.2508 106.409 20.3851 106.222 20.4988C105.858 20.7261 105.436 20.8966 104.958 21.0103C104.49 21.1136 104.053 21.1653 103.647 21.1653Z" fill="white"/>
<path d="M109.343 21.1342C109.021 21.1342 108.771 21.0516 108.594 20.8862C108.428 20.7106 108.344 20.4626 108.344 20.1422V14.2832C108.344 13.9629 108.428 13.7201 108.594 13.5547C108.761 13.3894 108.995 13.3067 109.296 13.3067C109.598 13.3067 109.832 13.3894 109.999 13.5547C110.165 13.7201 110.248 13.9629 110.248 14.2832V15.2597H110.092C110.238 14.6397 110.524 14.1696 110.951 13.8492C111.377 13.5289 111.944 13.3377 112.652 13.2757C112.87 13.2551 113.042 13.3119 113.167 13.4462C113.302 13.5702 113.38 13.7666 113.401 14.0352C113.422 14.2936 113.359 14.5054 113.213 14.6707C113.078 14.8257 112.87 14.9187 112.589 14.9497L112.246 14.9807C111.611 15.0427 111.133 15.2391 110.81 15.5697C110.488 15.8901 110.326 16.3447 110.326 16.9337V20.1422C110.326 20.4626 110.243 20.7106 110.077 20.8862C109.91 21.0516 109.666 21.1342 109.343 21.1342Z" fill="white"/>
<path d="M117.049 0.242188H1.95062C1.00789 0.242188 0.243652 1.0012 0.243652 1.9375V29.0625C0.243652 29.9988 1.00789 30.7578 1.95062 30.7578H117.049C117.992 30.7578 118.756 29.9988 118.756 29.0625V1.9375C118.756 1.0012 117.992 0.242188 117.049 0.242188Z" stroke="white"/>
</g>
<defs>
<clipPath id="clip0_209_4868">
<rect width="119" height="31" fill="white"/>
</clipPath>
</defs>
</svg>
