<svg width="244" height="64" viewBox="0 0 244 64" fill="none" xmlns="http://www.w3.org/2000/svg">
<path d="M14.512 43.256C13.8507 43.256 13.3387 43.0747 12.976 42.712C12.6347 42.328 12.464 41.8053 12.464 41.144V22.52C12.464 21.8373 12.6453 21.3253 13.008 20.984C13.3707 20.6213 13.8827 20.44 14.544 20.44H22.256C24.7307 20.44 26.64 21.0373 27.984 22.232C29.328 23.4053 30 25.0587 30 27.192C30 28.5787 29.6907 29.7733 29.072 30.776C28.4747 31.7787 27.6 32.5467 26.448 33.08C25.296 33.6133 23.8987 33.88 22.256 33.88L22.544 33.4H23.6C24.4747 33.4 25.232 33.6133 25.872 34.04C26.5333 34.4667 27.1093 35.1387 27.6 36.056L30 40.504C30.256 40.952 30.3733 41.3893 30.352 41.816C30.3307 42.2427 30.1707 42.5947 29.872 42.872C29.5733 43.128 29.136 43.256 28.56 43.256C27.984 43.256 27.5147 43.1387 27.152 42.904C26.7893 42.648 26.4693 42.264 26.192 41.752L22.96 35.8C22.576 35.0747 22.1173 34.5947 21.584 34.36C21.072 34.104 20.4107 33.976 19.6 33.976H16.56V41.144C16.56 41.8053 16.3893 42.328 16.048 42.712C15.7067 43.0747 15.1947 43.256 14.512 43.256ZM16.56 30.936H21.552C23.024 30.936 24.1333 30.6373 24.88 30.04C25.648 29.4213 26.032 28.504 26.032 27.288C26.032 26.0933 25.648 25.1973 24.88 24.6C24.1333 23.9813 23.024 23.672 21.552 23.672H16.56V30.936ZM41.3233 43.32C39.5526 43.32 38.0273 42.9893 36.7473 42.328C35.4673 41.6667 34.4753 40.728 33.7713 39.512C33.0886 38.296 32.7473 36.856 32.7473 35.192C32.7473 33.5707 33.0779 32.152 33.7393 30.936C34.4219 29.72 35.3499 28.7707 36.5233 28.088C37.7179 27.384 39.0726 27.032 40.5873 27.032C41.6966 27.032 42.6886 27.2133 43.5633 27.576C44.4593 27.9387 45.2166 28.4613 45.8353 29.144C46.4753 29.8267 46.9553 30.6587 47.2753 31.64C47.6166 32.6 47.7873 33.688 47.7873 34.904C47.7873 35.288 47.6486 35.5867 47.3713 35.8C47.1153 35.992 46.7419 36.088 46.2513 36.088H35.9793V33.784H44.9713L44.4593 34.264C44.4593 33.2827 44.3099 32.4613 44.0113 31.8C43.7339 31.1387 43.3179 30.6373 42.7633 30.296C42.2299 29.9333 41.5579 29.752 40.7473 29.752C39.8513 29.752 39.0833 29.9653 38.4433 30.392C37.8246 30.7973 37.3446 31.384 37.0033 32.152C36.6833 32.8987 36.5233 33.7947 36.5233 34.84V35.064C36.5233 36.8133 36.9286 38.1253 37.7393 39C38.5713 39.8533 39.7873 40.28 41.3873 40.28C41.9419 40.28 42.5606 40.216 43.2433 40.088C43.9473 39.9387 44.6086 39.6933 45.2273 39.352C45.6753 39.096 46.0699 38.9893 46.4113 39.032C46.7526 39.0533 47.0193 39.1707 47.2113 39.384C47.4246 39.5973 47.5526 39.864 47.5953 40.184C47.6379 40.4827 47.5739 40.792 47.4033 41.112C47.2539 41.432 46.9873 41.7093 46.6033 41.944C45.8566 42.4133 44.9926 42.7653 44.0113 43C43.0513 43.2133 42.1553 43.32 41.3233 43.32ZM56.683 43.32C55.7657 43.32 54.795 43.224 53.771 43.032C52.747 42.84 51.8297 42.5093 51.019 42.04C50.6777 41.8267 50.4323 41.5813 50.283 41.304C50.155 41.0053 50.1017 40.7173 50.123 40.44C50.1657 40.1413 50.2723 39.8853 50.443 39.672C50.635 39.4587 50.8697 39.32 51.147 39.256C51.4457 39.192 51.7657 39.2453 52.107 39.416C52.9603 39.8213 53.7603 40.1093 54.507 40.28C55.2537 40.4293 55.9897 40.504 56.715 40.504C57.739 40.504 58.4963 40.3333 58.987 39.992C59.499 39.6293 59.755 39.16 59.755 38.584C59.755 38.0933 59.5843 37.72 59.243 37.464C58.923 37.1867 58.4323 36.984 57.771 36.856L54.571 36.248C53.2483 35.992 52.235 35.512 51.531 34.808C50.8483 34.0827 50.507 33.1547 50.507 32.024C50.507 31 50.7843 30.1147 51.339 29.368C51.915 28.6213 52.7043 28.0453 53.707 27.64C54.7097 27.2347 55.8617 27.032 57.163 27.032C58.1017 27.032 58.9763 27.1387 59.787 27.352C60.619 27.544 61.419 27.8533 62.187 28.28C62.507 28.4507 62.7203 28.6747 62.827 28.952C62.955 29.2293 62.987 29.5173 62.923 29.816C62.859 30.0933 62.731 30.3493 62.539 30.584C62.347 30.7973 62.1017 30.936 61.803 31C61.5257 31.0427 61.2057 30.9787 60.843 30.808C60.1817 30.4667 59.5417 30.2213 58.923 30.072C58.3257 29.9227 57.7497 29.848 57.195 29.848C56.1497 29.848 55.371 30.0293 54.859 30.392C54.3683 30.7547 54.123 31.2347 54.123 31.832C54.123 32.28 54.2723 32.6533 54.571 32.952C54.8697 33.2507 55.3283 33.4533 55.947 33.56L59.147 34.168C60.5337 34.424 61.579 34.8933 62.283 35.576C63.0083 36.2587 63.371 37.176 63.371 38.328C63.371 39.8853 62.763 41.112 61.547 42.008C60.331 42.8827 58.7097 43.32 56.683 43.32ZM72.244 43.32C70.9427 43.32 69.8653 43.0853 69.012 42.616C68.1587 42.1253 67.5187 41.4 67.092 40.44C66.6867 39.48 66.484 38.2853 66.484 36.856V29.112C66.484 28.4293 66.6547 27.928 66.996 27.608C67.3373 27.2667 67.828 27.096 68.468 27.096C69.108 27.096 69.5987 27.2667 69.94 27.608C70.3027 27.928 70.484 28.4293 70.484 29.112V36.92C70.484 38.0293 70.708 38.8507 71.156 39.384C71.604 39.9173 72.3187 40.184 73.3 40.184C74.3667 40.184 75.2413 39.8213 75.924 39.096C76.6067 38.3493 76.948 37.368 76.948 36.152V29.112C76.948 28.4293 77.1187 27.928 77.46 27.608C77.8013 27.2667 78.292 27.096 78.932 27.096C79.572 27.096 80.0627 27.2667 80.404 27.608C80.7667 27.928 80.948 28.4293 80.948 29.112V41.208C80.948 42.5733 80.2973 43.256 78.996 43.256C78.3773 43.256 77.8973 43.0853 77.556 42.744C77.2147 42.3813 77.044 41.8693 77.044 41.208V38.776L77.492 39.736C77.044 40.888 76.3613 41.7733 75.444 42.392C74.548 43.0107 73.4813 43.32 72.244 43.32ZM87.1593 43.256C86.5193 43.256 86.0286 43.0853 85.6873 42.744C85.3459 42.3813 85.1753 41.8693 85.1753 41.208V29.112C85.1753 28.4507 85.3459 27.9493 85.6873 27.608C86.0286 27.2667 86.5086 27.096 87.1273 27.096C87.7459 27.096 88.2259 27.2667 88.5673 27.608C88.9086 27.9493 89.0793 28.4507 89.0793 29.112V31.448L88.7273 30.488C89.1539 29.4213 89.8153 28.5787 90.7113 27.96C91.6073 27.3413 92.6739 27.032 93.9113 27.032C95.1699 27.032 96.2046 27.3307 97.0153 27.928C97.8259 28.5253 98.3913 29.4427 98.7113 30.68H98.2633C98.6899 29.5493 99.3939 28.664 100.375 28.024C101.357 27.3627 102.487 27.032 103.767 27.032C104.962 27.032 105.943 27.2667 106.711 27.736C107.501 28.2053 108.087 28.92 108.471 29.88C108.855 30.8187 109.047 32.0133 109.047 33.464V41.208C109.047 41.8693 108.866 42.3813 108.503 42.744C108.162 43.0853 107.671 43.256 107.031 43.256C106.391 43.256 105.901 43.0853 105.559 42.744C105.218 42.3813 105.047 41.8693 105.047 41.208V33.624C105.047 32.4293 104.845 31.5547 104.439 31C104.055 30.4453 103.394 30.168 102.455 30.168C101.41 30.168 100.589 30.5413 99.9913 31.288C99.3939 32.0133 99.0953 33.0267 99.0953 34.328V41.208C99.0953 41.8693 98.9246 42.3813 98.5833 42.744C98.2419 43.0853 97.7513 43.256 97.1113 43.256C96.4713 43.256 95.9699 43.0853 95.6073 42.744C95.2659 42.3813 95.0953 41.8693 95.0953 41.208V33.624C95.0953 32.4293 94.8926 31.5547 94.4873 31C94.1033 30.4453 93.4526 30.168 92.5353 30.168C91.4899 30.168 90.6686 30.5413 90.0713 31.288C89.4739 32.0133 89.1753 33.0267 89.1753 34.328V41.208C89.1753 42.5733 88.5033 43.256 87.1593 43.256ZM120.886 43.32C119.115 43.32 117.59 42.9893 116.31 42.328C115.03 41.6667 114.038 40.728 113.334 39.512C112.651 38.296 112.31 36.856 112.31 35.192C112.31 33.5707 112.64 32.152 113.302 30.936C113.984 29.72 114.912 28.7707 116.086 28.088C117.28 27.384 118.635 27.032 120.15 27.032C121.259 27.032 122.251 27.2133 123.126 27.576C124.022 27.9387 124.779 28.4613 125.398 29.144C126.038 29.8267 126.518 30.6587 126.838 31.64C127.179 32.6 127.35 33.688 127.35 34.904C127.35 35.288 127.211 35.5867 126.934 35.8C126.678 35.992 126.304 36.088 125.814 36.088H115.542V33.784H124.534L124.022 34.264C124.022 33.2827 123.872 32.4613 123.574 31.8C123.296 31.1387 122.88 30.6373 122.326 30.296C121.792 29.9333 121.12 29.752 120.31 29.752C119.414 29.752 118.646 29.9653 118.006 30.392C117.387 30.7973 116.907 31.384 116.566 32.152C116.246 32.8987 116.086 33.7947 116.086 34.84V35.064C116.086 36.8133 116.491 38.1253 117.302 39C118.134 39.8533 119.35 40.28 120.95 40.28C121.504 40.28 122.123 40.216 122.806 40.088C123.51 39.9387 124.171 39.6933 124.79 39.352C125.238 39.096 125.632 38.9893 125.974 39.032C126.315 39.0533 126.582 39.1707 126.774 39.384C126.987 39.5973 127.115 39.864 127.158 40.184C127.2 40.4827 127.136 40.792 126.966 41.112C126.816 41.432 126.55 41.7093 126.166 41.944C125.419 42.4133 124.555 42.7653 123.574 43C122.614 43.2133 121.718 43.32 120.886 43.32ZM147.525 43.256C146.949 43.256 146.48 43.1173 146.117 42.84C145.776 42.5627 145.498 42.1253 145.285 41.528L138.597 22.616C138.362 21.9333 138.405 21.3573 138.725 20.888C139.066 20.4187 139.632 20.184 140.421 20.184C140.997 20.184 141.445 20.3227 141.765 20.6C142.085 20.856 142.341 21.272 142.533 21.848L148.293 38.936H147.013L153.029 21.88C153.242 21.304 153.509 20.8773 153.829 20.6C154.149 20.3227 154.565 20.184 155.077 20.184C155.589 20.184 155.994 20.3227 156.293 20.6C156.592 20.8773 156.848 21.3147 157.061 21.912L162.885 38.936H161.765L167.621 21.848C167.813 21.2933 168.069 20.8773 168.389 20.6C168.709 20.3227 169.146 20.184 169.701 20.184C170.384 20.184 170.885 20.4187 171.205 20.888C171.525 21.3573 171.568 21.9333 171.333 22.616L164.581 41.56C164.368 42.136 164.09 42.5627 163.749 42.84C163.408 43.1173 162.949 43.256 162.373 43.256C161.797 43.256 161.338 43.1173 160.997 42.84C160.656 42.5627 160.378 42.1253 160.165 41.528L154.597 25.656H155.333L149.701 41.56C149.488 42.136 149.21 42.5627 148.869 42.84C148.549 43.1173 148.101 43.256 147.525 43.256ZM175.034 43.256C174.373 43.256 173.861 43.0853 173.498 42.744C173.157 42.3813 172.986 41.8693 172.986 41.208V29.112C172.986 28.4507 173.157 27.9493 173.498 27.608C173.84 27.2667 174.32 27.096 174.938 27.096C175.557 27.096 176.037 27.2667 176.378 27.608C176.72 27.9493 176.89 28.4507 176.89 29.112V31.128H176.57C176.869 29.848 177.456 28.8773 178.33 28.216C179.205 27.5547 180.368 27.16 181.818 27.032C182.266 26.9893 182.618 27.1067 182.874 27.384C183.152 27.64 183.312 28.0453 183.354 28.6C183.397 29.1333 183.269 29.5707 182.97 29.912C182.693 30.232 182.266 30.424 181.69 30.488L180.986 30.552C179.685 30.68 178.704 31.0853 178.042 31.768C177.381 32.4293 177.05 33.368 177.05 34.584V41.208C177.05 41.8693 176.88 42.3813 176.538 42.744C176.197 43.0853 175.696 43.256 175.034 43.256ZM187.502 43.224C186.862 43.224 186.371 43.032 186.03 42.648C185.688 42.264 185.518 41.7307 185.518 41.048V29.304C185.518 28.6 185.688 28.0667 186.03 27.704C186.371 27.32 186.862 27.128 187.502 27.128C188.142 27.128 188.632 27.32 188.974 27.704C189.336 28.0667 189.518 28.6 189.518 29.304V41.048C189.518 41.7307 189.347 42.264 189.006 42.648C188.664 43.032 188.163 43.224 187.502 43.224ZM187.502 24.152C186.755 24.152 186.168 23.9707 185.742 23.608C185.336 23.224 185.134 22.7013 185.134 22.04C185.134 21.3573 185.336 20.8347 185.742 20.472C186.168 20.1093 186.755 19.928 187.502 19.928C188.27 19.928 188.856 20.1093 189.262 20.472C189.667 20.8347 189.87 21.3573 189.87 22.04C189.87 22.7013 189.667 23.224 189.262 23.608C188.856 23.9707 188.27 24.152 187.502 24.152ZM200.842 43.32C199.455 43.32 198.292 43.0853 197.354 42.616C196.436 42.1467 195.754 41.464 195.306 40.568C194.858 39.6507 194.634 38.52 194.634 37.176V30.36H192.97C192.458 30.36 192.063 30.232 191.786 29.976C191.508 29.6987 191.37 29.3253 191.37 28.856C191.37 28.3653 191.508 27.992 191.786 27.736C192.063 27.48 192.458 27.352 192.97 27.352H194.634V24.44C194.634 23.7787 194.804 23.2773 195.146 22.936C195.508 22.5947 196.01 22.424 196.65 22.424C197.29 22.424 197.78 22.5947 198.122 22.936C198.463 23.2773 198.634 23.7787 198.634 24.44V27.352H202.026C202.538 27.352 202.932 27.48 203.21 27.736C203.487 27.992 203.626 28.3653 203.626 28.856C203.626 29.3253 203.487 29.6987 203.21 29.976C202.932 30.232 202.538 30.36 202.026 30.36H198.634V36.952C198.634 37.976 198.858 38.744 199.306 39.256C199.754 39.768 200.479 40.024 201.482 40.024C201.844 40.024 202.164 39.992 202.442 39.928C202.719 39.864 202.964 39.8213 203.178 39.8C203.434 39.7787 203.647 39.864 203.818 40.056C203.988 40.2267 204.074 40.5893 204.074 41.144C204.074 41.5707 203.999 41.9547 203.85 42.296C203.722 42.616 203.476 42.84 203.114 42.968C202.836 43.0533 202.474 43.128 202.026 43.192C201.578 43.2773 201.183 43.32 200.842 43.32ZM213.511 43.32C211.74 43.32 210.215 42.9893 208.935 42.328C207.655 41.6667 206.663 40.728 205.959 39.512C205.276 38.296 204.935 36.856 204.935 35.192C204.935 33.5707 205.265 32.152 205.927 30.936C206.609 29.72 207.537 28.7707 208.711 28.088C209.905 27.384 211.26 27.032 212.775 27.032C213.884 27.032 214.876 27.2133 215.751 27.576C216.647 27.9387 217.404 28.4613 218.023 29.144C218.663 29.8267 219.143 30.6587 219.463 31.64C219.804 32.6 219.975 33.688 219.975 34.904C219.975 35.288 219.836 35.5867 219.559 35.8C219.303 35.992 218.929 36.088 218.439 36.088H208.167V33.784H217.159L216.647 34.264C216.647 33.2827 216.497 32.4613 216.199 31.8C215.921 31.1387 215.505 30.6373 214.951 30.296C214.417 29.9333 213.745 29.752 212.935 29.752C212.039 29.752 211.271 29.9653 210.631 30.392C210.012 30.7973 209.532 31.384 209.191 32.152C208.871 32.8987 208.711 33.7947 208.711 34.84V35.064C208.711 36.8133 209.116 38.1253 209.927 39C210.759 39.8533 211.975 40.28 213.575 40.28C214.129 40.28 214.748 40.216 215.431 40.088C216.135 39.9387 216.796 39.6933 217.415 39.352C217.863 39.096 218.257 38.9893 218.599 39.032C218.94 39.0533 219.207 39.1707 219.399 39.384C219.612 39.5973 219.74 39.864 219.783 40.184C219.825 40.4827 219.761 40.792 219.591 41.112C219.441 41.432 219.175 41.7093 218.791 41.944C218.044 42.4133 217.18 42.7653 216.199 43C215.239 43.2133 214.343 43.32 213.511 43.32ZM225.191 43.256C224.529 43.256 224.017 43.0853 223.655 42.744C223.313 42.3813 223.143 41.8693 223.143 41.208V29.112C223.143 28.4507 223.313 27.9493 223.655 27.608C223.996 27.2667 224.476 27.096 225.095 27.096C225.713 27.096 226.193 27.2667 226.535 27.608C226.876 27.9493 227.047 28.4507 227.047 29.112V31.128H226.727C227.025 29.848 227.612 28.8773 228.487 28.216C229.361 27.5547 230.524 27.16 231.975 27.032C232.423 26.9893 232.775 27.1067 233.031 27.384C233.308 27.64 233.468 28.0453 233.511 28.6C233.553 29.1333 233.425 29.5707 233.127 29.912C232.849 30.232 232.423 30.424 231.847 30.488L231.143 30.552C229.841 30.68 228.86 31.0853 228.199 31.768C227.537 32.4293 227.207 33.368 227.207 34.584V41.208C227.207 41.8693 227.036 42.3813 226.695 42.744C226.353 43.0853 225.852 43.256 225.191 43.256Z" fill="white"/>
<rect x="0.5" y="0.5" width="243" height="63" rx="3.5" stroke="white"/>
</svg>
