<svg width="581" height="444" viewBox="0 0 581 444" fill="none" xmlns="http://www.w3.org/2000/svg">
<g clip-path="url(#clip0_77_3809)">
<path d="M191.229 411.366L86.0775 410.973C86.0775 410.973 7.08888 362.715 37.6032 236.537C46.8089 198.468 99.8616 140.657 164.991 136.357C244.439 131.111 237.644 35.44 385.738 54.0325C426.449 59.1385 480.054 101.072 512.765 167.697C537.129 217.318 586.237 289.603 507.606 411.375L191.229 411.366Z" fill="#F1DDE9"/>
<path d="M202.32 125.104L407.942 124.733C408.821 124.734 409.691 124.908 410.503 125.245C411.314 125.582 412.051 126.075 412.672 126.696C413.292 127.318 413.784 128.055 414.119 128.866C414.454 129.677 414.626 130.547 414.624 131.424L415.118 404.295C415.126 406.067 414.429 407.769 413.181 409.028C411.933 410.287 410.235 410.999 408.46 411.009L202.836 411.366C201.957 411.365 201.088 411.191 200.276 410.854C199.465 410.517 198.728 410.024 198.107 409.403C197.487 408.782 196.995 408.045 196.66 407.234C196.325 406.423 196.153 405.554 196.154 404.677L195.663 131.817C195.658 130.94 195.827 130.07 196.159 129.258C196.491 128.446 196.981 127.707 197.599 127.084C198.217 126.46 198.952 125.965 199.762 125.625C200.572 125.285 201.441 125.108 202.32 125.104Z" fill="#31081F"/>
<path d="M210.002 393.804V137.984H400.827V347.603L356.088 393.804H210.002Z" fill="white"/>
<path d="M305.415 107.395C301.399 107.394 297.423 108.183 293.713 109.717C290.003 111.251 286.632 113.499 283.793 116.334C280.953 119.168 278.7 122.534 277.164 126.237C275.627 129.941 274.836 133.911 274.836 137.92V137.984H335.985V137.92C335.985 129.825 332.764 122.061 327.031 116.337C321.298 110.612 313.523 107.396 305.415 107.395ZM305.415 130.321C304.344 130.321 303.298 130.004 302.408 129.41C301.518 128.816 300.824 127.972 300.415 126.985C300.005 125.998 299.898 124.911 300.107 123.863C300.315 122.815 300.831 121.852 301.588 121.096C302.345 120.341 303.309 119.826 304.359 119.618C305.409 119.409 306.497 119.516 307.486 119.925C308.475 120.334 309.32 121.027 309.915 121.915C310.51 122.804 310.827 123.849 310.827 124.917C310.826 126.349 310.255 127.722 309.24 128.734C308.225 129.746 306.849 130.315 305.415 130.314V130.321Z" fill="#4381C1"/>
<path d="M386.162 151.535H225.027V169.577H386.162V151.535Z" fill="#85ADD6"/>
<path d="M386.162 181.94H225.027V185.168H386.162V181.94Z" fill="#85ADD6"/>
<path d="M386.162 196.195H225.027V199.423H386.162V196.195Z" fill="#85ADD6"/>
<path d="M386.162 212.345H225.027V215.573H386.162V212.345Z" fill="#85ADD6"/>
<path d="M307.031 226.6H225.027V229.828H307.031V226.6Z" fill="#85ADD6"/>
<path d="M400.827 347.603L356.088 393.804V347.603H400.827Z" fill="#DCF4FF"/>
<path d="M262.015 307.541H225.027V270.618H262.015V307.541ZM227.698 304.877H259.344V273.282H227.696L227.698 304.877Z" fill="#85ADD6"/>
<path d="M384.573 270.207H271.334V273.999H384.573V270.207Z" fill="#85ADD6"/>
<path d="M384.573 286.955H271.334V290.747H384.573V286.955Z" fill="#85ADD6"/>
<path d="M243.039 302.322L231.921 285.374C231.798 285.187 231.753 284.96 231.794 284.74C231.836 284.521 231.961 284.325 232.143 284.196C232.233 284.133 232.334 284.089 232.441 284.067C232.548 284.044 232.659 284.043 232.766 284.064C232.873 284.084 232.975 284.126 233.066 284.187C233.157 284.248 233.235 284.326 233.295 284.418L242.634 298.672L254.51 267.557C254.548 267.454 254.606 267.36 254.681 267.279C254.755 267.199 254.845 267.135 254.946 267.09C255.046 267.045 255.154 267.021 255.263 267.018C255.373 267.015 255.482 267.035 255.584 267.075C255.794 267.16 255.961 267.325 256.049 267.533C256.138 267.741 256.14 267.975 256.056 268.185L243.039 302.322Z" fill="#FF424D"/>
<path d="M262.015 358.228H225.027V321.298H262.015V358.228ZM227.698 355.564H259.344V323.965H227.696L227.698 355.564Z" fill="#85ADD6"/>
<path d="M384.573 321.121H271.334V324.913H384.573V321.121Z" fill="#85ADD6"/>
<path d="M384.573 337.868H271.334V341.66H384.573V337.868Z" fill="#85ADD6"/>
<path d="M244.082 351.373L230.587 331.133C230.434 330.901 230.378 330.619 230.43 330.347C230.482 330.074 230.638 329.832 230.865 329.672C230.977 329.595 231.103 329.541 231.236 329.514C231.369 329.487 231.507 329.487 231.64 329.514C231.773 329.541 231.899 329.594 232.012 329.671C232.124 329.748 232.219 329.846 232.292 329.961L243.608 346.857L258.33 308.285C258.377 308.157 258.449 308.04 258.542 307.94C258.635 307.841 258.747 307.761 258.871 307.705C258.996 307.65 259.13 307.619 259.266 307.616C259.402 307.613 259.538 307.637 259.665 307.688C259.921 307.794 260.125 307.997 260.234 308.252C260.343 308.507 260.347 308.794 260.247 309.053L244.082 351.373Z" fill="#FF424D"/>
<path d="M119.992 200.557C123.198 200.375 130.714 200.053 137.247 200.604C137.886 200.659 138.529 200.579 139.136 200.37C139.742 200.161 140.298 199.828 140.767 199.391C141.236 198.954 141.608 198.423 141.859 197.834C142.11 197.244 142.234 196.609 142.223 195.968C142.199 194.858 141.801 193.571 140.769 192.11C136.802 186.484 129.907 191.857 129.973 194.712C129.973 194.712 128.579 190.414 124.345 191.16C120.112 191.906 121.608 198.164 121.608 198.164C121.608 198.164 120.243 197.875 119.296 198.521C119.089 198.656 118.933 198.856 118.853 199.089C118.772 199.322 118.772 199.576 118.852 199.809C118.931 200.042 119.087 200.243 119.293 200.378C119.5 200.514 119.745 200.576 119.992 200.557Z" fill="white"/>
<path d="M69.456 258.255C69.3453 257.903 69.3186 257.53 69.378 257.166C69.4375 256.803 69.5815 256.458 69.7984 256.159C70.6523 254.991 72.2043 254.004 74.9861 253.833C74.9861 253.833 71.9775 240.486 83.6381 239.085C95.6232 237.644 96.2414 251.712 96.2414 251.712C96.2414 251.712 103.034 244.251 106.737 253.342C106.737 253.342 114.048 249.659 117.559 254.081C118.031 254.676 118.286 255.414 118.281 256.173C118.275 256.932 118.011 257.667 117.53 258.255H69.456Z" fill="white"/>
<path d="M555.78 309.912C555.847 309.697 555.864 309.469 555.828 309.246C555.791 309.023 555.703 308.812 555.571 308.629C555.048 307.916 554.097 307.31 552.393 307.206C552.393 307.206 554.237 299.034 547.097 298.177C539.759 297.289 539.381 305.907 539.381 305.907C539.381 305.907 535.221 301.338 532.955 306.906C532.955 306.906 528.479 304.651 526.328 307.35C526.04 307.715 525.885 308.166 525.888 308.631C525.891 309.095 526.053 309.545 526.346 309.905L555.78 309.912Z" fill="white"/>
<path d="M425.735 264.258C425.474 263.426 425.412 262.546 425.552 261.686C425.692 260.826 426.031 260.011 426.542 259.305C428.564 256.55 432.233 254.199 438.81 253.806C438.81 253.806 431.695 222.26 459.267 218.952C487.591 215.549 489.063 248.8 489.063 248.8C489.063 248.8 505.118 231.16 513.87 252.652C513.87 252.652 531.149 243.947 539.441 254.394C540.555 255.801 541.156 257.545 541.143 259.339C541.131 261.133 540.506 262.869 539.372 264.26L425.735 264.258Z" fill="white"/>
<path d="M518.704 410.716H61.876V412.025H518.704V410.716Z" fill="#21111D"/>
<path d="M518.969 112.028C518.969 87.8298 499.316 68.2006 475.075 68.2006C450.833 68.2006 431.181 87.8231 431.181 112.028C431.168 123.561 435.724 134.631 443.856 142.824C443.856 142.824 457.139 157.007 461.624 172.467C461.624 172.467 469.294 175.067 475.082 175.211C480.863 175.067 488.539 172.467 488.539 172.467C493.026 157.007 506.31 142.824 506.31 142.824C514.436 134.629 518.986 123.559 518.969 112.028Z" fill="#FECC86"/>
<path d="M475.066 198.222C473.256 198.222 471.52 197.504 470.24 196.226C468.961 194.948 468.242 193.215 468.242 191.408H481.888C481.888 193.215 481.169 194.948 479.89 196.225C478.611 197.503 476.875 198.221 475.066 198.222Z" fill="#4381C1"/>
<path d="M460.433 168.975H489.697V183.627C489.697 186.188 488.678 188.644 486.865 190.454C485.051 192.265 482.592 193.282 480.027 193.282H470.103C467.538 193.282 465.079 192.265 463.265 190.454C461.451 188.644 460.433 186.188 460.433 183.627V168.975Z" fill="#4381C1"/>
<g style="mix-blend-mode:multiply" opacity="0.3">
<path d="M518.969 112.026C518.979 103.396 516.425 94.957 511.631 87.7766C498.794 119.361 478.319 140.613 448.828 148.842C452.541 153.706 457.464 161.032 460.441 168.975H489.686C494.972 154.938 506.312 142.826 506.312 142.826C514.438 134.63 518.988 123.558 518.969 112.026Z" fill="#FECC86"/>
</g>
<path d="M482.248 169.146L480.992 168.802C481.032 168.653 485.125 153.626 487.965 138.233C492.89 111.524 490.057 105.861 487.931 104.862C485.757 103.841 484.047 104.023 482.848 105.406C482.762 105.506 482.677 105.612 482.597 105.723C483.644 106.319 484.544 107.141 485.234 108.128C485.924 109.114 486.385 110.242 486.584 111.428C487.071 114.536 485.681 117.625 483.486 118.328C482.955 118.499 481.93 118.586 481.041 117.252C479.637 115.131 479.199 109.835 480.771 106.3C479.262 105.685 477.436 105.357 475.321 105.357H474.07C471.966 105.357 470.127 105.685 468.62 106.3C470.189 109.835 469.751 115.131 468.348 117.252C467.459 118.584 466.443 118.499 465.902 118.328C463.708 117.625 462.32 114.53 462.805 111.428C463.005 110.242 463.466 109.114 464.156 108.127C464.846 107.141 465.747 106.319 466.794 105.723C466.714 105.612 466.629 105.501 466.543 105.406C465.344 104.023 463.632 103.838 461.46 104.862C459.332 105.861 456.499 111.522 461.426 138.233C464.263 153.626 468.357 168.647 468.399 168.802L467.143 169.146C467.101 168.995 462.996 153.922 460.145 138.475C456.212 117.163 456.461 105.772 460.904 103.685C464.352 102.065 466.409 103.263 467.528 104.555C467.687 104.739 467.835 104.932 467.972 105.133C469.509 104.48 471.495 104.056 474.065 104.056H475.333C477.903 104.056 479.889 104.48 481.423 105.133C481.559 104.931 481.708 104.739 481.868 104.555C482.979 103.263 485.043 102.065 488.49 103.685C492.937 105.772 493.181 117.154 489.248 138.475C486.395 153.922 482.297 168.995 482.248 169.146ZM467.443 106.873C465.591 107.954 464.417 109.575 464.094 111.63C463.67 114.337 464.893 116.639 466.303 117.092C466.434 117.134 466.783 117.247 467.254 116.534C468.457 114.719 468.775 109.928 467.443 106.873ZM481.95 106.873C480.616 109.928 480.934 114.719 482.137 116.534C482.608 117.247 482.957 117.134 483.088 117.092C484.498 116.648 485.721 114.337 485.296 111.63C484.965 109.575 483.8 107.954 481.95 106.873Z" fill="#F99247"/>
<path d="M460.221 169.282C459.87 168.281 459.712 167.916 459.367 167.115L459.178 166.671C453.697 153.893 443.711 143.15 443.613 143.044L443.582 143.008C435.405 134.765 430.83 123.625 430.859 112.023C430.859 87.6767 450.695 67.8699 475.077 67.8699C482.427 67.8618 489.663 69.6872 496.128 73.1803C502.592 76.6734 508.08 81.7236 512.093 87.8721L511.548 88.2273C507.594 82.1708 502.188 77.1963 495.819 73.7555C489.451 70.3147 482.322 68.5168 475.081 68.5248C451.067 68.5248 431.514 88.0408 431.514 112.037C431.487 123.487 436.009 134.481 444.089 142.606L444.514 143.035H444.482C446.395 145.166 454.878 154.985 459.783 166.422L459.972 166.866C460.323 167.681 460.483 168.054 460.841 169.075L460.221 169.282Z" fill="#21111D"/>
<path d="M444.42 91.7925L443.795 91.6127C443.827 91.5039 447.073 80.717 457.993 76.661L458.215 77.2693C447.609 81.2098 444.451 91.686 444.42 91.7925Z" fill="#21111D"/>
<path d="M446.435 95.693L445.808 95.5132C445.841 95.4044 449.086 84.6175 460.006 80.5615L460.228 81.1698C449.628 85.1103 446.464 95.5887 446.435 95.693Z" fill="#21111D"/>
<path d="M476.66 193.6H473.469C469.927 193.595 466.53 192.188 464.025 189.687C461.52 187.186 460.111 183.794 460.108 180.257V168.649H489.697V169.299H460.759V180.264C460.763 183.629 462.103 186.854 464.486 189.234C466.869 191.613 470.099 192.952 473.469 192.956H476.66C479.997 192.963 483.201 191.654 485.575 189.313L486.031 189.774C483.536 192.235 480.167 193.61 476.66 193.6Z" fill="#21111D"/>
<path d="M475.255 198.548C468.913 198.548 467.997 192.405 467.988 192.332L468.633 192.243C468.667 192.478 469.523 198.015 475.466 197.884L475.482 198.535L475.255 198.548Z" fill="#21111D"/>
<path d="M505.176 136.561L504.787 136.039C510.581 131.748 511.493 124.582 511.5 124.511L512.147 124.586C512.138 124.662 511.204 132.09 505.176 136.561Z" fill="#21111D"/>
<path d="M503.893 133.437L503.506 132.916C507.731 129.788 508.398 124.562 508.398 124.511L509.045 124.586C509.02 124.813 508.347 130.139 503.893 133.437Z" fill="#21111D"/>
<path d="M459.089 174.816V174.166C459.336 174.166 484.011 173.844 491.827 170.936L492.05 171.546C484.127 174.492 460.108 174.805 459.089 174.816Z" fill="#21111D"/>
<path d="M459.092 180.306V179.656C459.361 179.656 486.137 179.121 491.143 176.443L491.452 177.018C486.3 179.769 460.201 180.286 459.092 180.306Z" fill="#21111D"/>
<path d="M460.435 185.943V185.292C460.677 185.292 484.705 185.037 491.14 181.716L491.44 182.293C484.863 185.685 461.431 185.934 460.435 185.943Z" fill="#21111D"/>
<path d="M419.992 105.128H419.907L404.375 103.809C404.126 103.777 403.898 103.65 403.74 103.454C403.582 103.258 403.505 103.009 403.526 102.758C403.548 102.508 403.665 102.275 403.854 102.109C404.042 101.942 404.288 101.855 404.54 101.865L420.074 103.186C420.329 103.202 420.567 103.317 420.737 103.507C420.908 103.696 420.997 103.945 420.986 104.199C420.976 104.454 420.866 104.694 420.68 104.868C420.494 105.043 420.247 105.138 419.992 105.132V105.128Z" fill="#F99247"/>
<path d="M428.026 80.4195C427.829 80.4193 427.637 80.3597 427.475 80.2486L414.609 71.4596C414.503 71.3867 414.413 71.2937 414.343 71.1859C414.273 71.0781 414.225 70.9577 414.202 70.8314C414.178 70.7052 414.18 70.5756 414.207 70.45C414.234 70.3245 414.286 70.2055 414.359 70.0998C414.432 69.9941 414.525 69.9038 414.633 69.8341C414.741 69.7644 414.861 69.7165 414.988 69.6933C415.114 69.6701 415.244 69.672 415.37 69.6989C415.496 69.7258 415.615 69.7772 415.721 69.8501L428.586 78.6391C428.757 78.7572 428.886 78.9267 428.954 79.1229C429.021 79.3192 429.025 79.5319 428.963 79.7301C428.901 79.9283 428.778 80.1016 428.61 80.2248C428.443 80.348 428.241 80.4147 428.033 80.4151L428.026 80.4195Z" fill="#F99247"/>
<path d="M451.278 62.695C451.084 62.6948 450.894 62.6368 450.733 62.5285C450.571 62.4201 450.446 62.2663 450.373 62.0867L444.507 47.6567C444.459 47.538 444.435 47.4111 444.436 47.283C444.437 47.155 444.463 47.0284 444.513 46.9105C444.563 46.7926 444.635 46.6857 444.727 46.5958C444.818 46.506 444.926 46.435 445.045 46.3869C445.164 46.3388 445.291 46.3145 445.419 46.3155C445.548 46.3164 445.674 46.3426 445.793 46.3925C445.911 46.4424 446.018 46.515 446.108 46.6062C446.198 46.6974 446.269 46.8054 446.317 46.9241L452.183 61.3541C452.242 61.5016 452.264 61.6613 452.246 61.8191C452.229 61.977 452.173 62.1282 452.084 62.2596C451.995 62.391 451.875 62.4986 451.734 62.5729C451.594 62.6473 451.437 62.6861 451.278 62.6861V62.695Z" fill="#F99247"/>
<path d="M529.377 107.939C529.249 107.943 529.121 107.922 529.001 107.876C528.881 107.831 528.771 107.763 528.678 107.675C528.584 107.588 528.509 107.482 528.456 107.366C528.403 107.249 528.374 107.123 528.37 106.995C528.366 106.867 528.387 106.74 528.432 106.62C528.477 106.5 528.546 106.39 528.634 106.297C528.721 106.204 528.827 106.128 528.944 106.076C529.06 106.023 529.186 105.994 529.315 105.989L544.88 104.964C545.138 104.947 545.393 105.034 545.588 105.204C545.783 105.375 545.901 105.616 545.918 105.874C545.935 106.132 545.848 106.387 545.677 106.581C545.506 106.775 545.265 106.894 545.007 106.911L529.437 107.936L529.377 107.939Z" fill="#F99247"/>
<path d="M521.815 83.0812C521.604 83.0817 521.399 83.0145 521.23 82.8893C521.062 82.7642 520.938 82.588 520.877 82.3869C520.817 82.1858 520.823 81.9706 520.895 81.7733C520.967 81.576 521.101 81.4071 521.276 81.2919L534.307 72.7471C534.414 72.6769 534.534 72.6284 534.66 72.6044C534.786 72.5804 534.915 72.5815 535.041 72.6074C535.166 72.6334 535.285 72.6838 535.391 72.7558C535.497 72.8277 535.588 72.9199 535.659 73.0268C535.729 73.1338 535.778 73.2536 535.802 73.3794C535.826 73.5051 535.825 73.6343 535.799 73.7597C535.773 73.885 535.722 74.004 535.65 74.1098C535.578 74.2157 535.486 74.3063 535.378 74.3766L522.348 82.9214C522.19 83.0259 522.004 83.0815 521.815 83.0812Z" fill="#F99247"/>
<path d="M501.911 62.6395C501.751 62.6373 501.593 62.5956 501.452 62.5182C501.311 62.4408 501.192 62.33 501.104 62.1956C501.016 62.0611 500.962 61.9072 500.948 61.7473C500.934 61.5874 500.959 61.4264 501.022 61.2786L507.161 46.9729C507.263 46.7351 507.456 46.5474 507.696 46.4512C507.937 46.3551 508.206 46.3583 508.444 46.4601C508.683 46.562 508.871 46.7542 508.967 46.9944C509.063 47.2346 509.06 47.5032 508.958 47.7411L502.819 62.0467C502.743 62.2238 502.616 62.3746 502.455 62.48C502.293 62.5855 502.104 62.641 501.911 62.6395Z" fill="#F99247"/>
<path d="M476.872 55.0561H476.856C476.597 55.052 476.35 54.9454 476.169 54.7598C475.989 54.5742 475.89 54.3246 475.893 54.0659L476.133 38.5015C476.137 38.2457 476.242 38.0018 476.425 37.8224C476.607 37.643 476.853 37.5424 477.109 37.5425H477.125C477.253 37.5442 477.38 37.5712 477.498 37.622C477.616 37.6727 477.723 37.7461 477.812 37.8381C477.902 37.9301 477.972 38.0388 478.019 38.1579C478.067 38.2771 478.09 38.4044 478.088 38.5326L477.848 54.0948C477.844 54.3508 477.739 54.5949 477.557 54.7747C477.374 54.9545 477.128 55.0555 476.872 55.0561Z" fill="#F99247"/>
<g opacity="0.5">
<path d="M504.524 90.8815C506.061 88.5008 503.259 83.9666 498.266 80.754C493.273 77.5414 487.979 76.8669 486.443 79.2476C484.906 81.6283 487.708 86.1626 492.701 89.3752C497.694 92.5878 502.987 93.2622 504.524 90.8815Z" fill="#F3FFFE"/>
</g>
<g opacity="0.3">
<path d="M387.085 237.706H225.027V257.835H387.085V237.706Z" fill="#85ADD6"/>
</g>
<path d="M182.744 384.726C182.744 384.726 177.407 398.128 181.883 408.258L79.3024 409.117L69.8366 408.258L61.4937 403.097V395.198L63.8173 388.673L71.3775 384.722L182.744 384.726Z" fill="white"/>
<path d="M74.4905 410.427H185.325C185.672 410.427 186.005 410.289 186.25 410.045C186.495 409.8 186.633 409.468 186.633 409.122C186.633 408.775 186.495 408.443 186.25 408.199C186.005 407.954 185.672 407.816 185.325 407.816H74.4905C67.7997 407.816 62.3586 402.775 62.3586 396.576C62.3586 390.378 67.7997 385.339 74.4905 385.339H185.325C185.672 385.339 186.005 385.201 186.25 384.956C186.495 384.712 186.633 384.38 186.633 384.033C186.633 383.687 186.495 383.355 186.25 383.11C186.005 382.866 185.672 382.728 185.325 382.728H74.4905C66.3588 382.728 59.7437 388.944 59.7437 396.576C59.7437 404.209 66.3655 410.427 74.4905 410.427Z" fill="#F75553"/>
<path d="M181.236 396.867H126.849C126.809 396.871 126.769 396.866 126.73 396.853C126.692 396.84 126.657 396.819 126.627 396.792C126.597 396.765 126.574 396.731 126.557 396.695C126.541 396.658 126.533 396.618 126.533 396.577C126.533 396.537 126.541 396.497 126.557 396.46C126.574 396.423 126.597 396.39 126.627 396.363C126.657 396.336 126.692 396.315 126.73 396.302C126.769 396.289 126.809 396.284 126.849 396.288H181.236C181.277 396.284 181.317 396.289 181.355 396.302C181.394 396.315 181.429 396.336 181.458 396.363C181.488 396.39 181.512 396.423 181.528 396.46C181.545 396.497 181.553 396.537 181.553 396.577C181.553 396.618 181.545 396.658 181.528 396.695C181.512 396.731 181.488 396.765 181.458 396.792C181.429 396.819 181.394 396.84 181.355 396.853C181.317 396.866 181.277 396.871 181.236 396.867Z" fill="#AAC9F8"/>
<path d="M119.185 396.867H66.3499C66.2773 396.861 66.2097 396.828 66.1605 396.774C66.1113 396.72 66.084 396.65 66.084 396.577C66.084 396.505 66.1113 396.435 66.1605 396.381C66.2097 396.327 66.2773 396.294 66.3499 396.288H119.185C119.225 396.284 119.265 396.289 119.304 396.302C119.342 396.315 119.377 396.336 119.407 396.363C119.437 396.39 119.46 396.423 119.477 396.46C119.493 396.497 119.501 396.537 119.501 396.577C119.501 396.618 119.493 396.658 119.477 396.695C119.46 396.731 119.437 396.765 119.407 396.792C119.377 396.819 119.342 396.84 119.304 396.853C119.265 396.866 119.225 396.871 119.185 396.867Z" fill="#AAC9F8"/>
<path d="M94.8808 402.062H67.7708C67.7306 402.065 67.69 402.061 67.6518 402.048C67.6135 402.035 67.5784 402.014 67.5486 401.987C67.5188 401.959 67.495 401.926 67.4788 401.889C67.4625 401.852 67.4541 401.813 67.4541 401.772C67.4541 401.732 67.4625 401.692 67.4788 401.655C67.495 401.618 67.5188 401.585 67.5486 401.558C67.5784 401.531 67.6135 401.51 67.6518 401.497C67.69 401.484 67.7306 401.479 67.7708 401.483H94.8808C94.9211 401.479 94.9616 401.484 94.9999 401.497C95.0381 401.51 95.0733 401.531 95.1031 401.558C95.1328 401.585 95.1566 401.618 95.1729 401.655C95.1892 401.692 95.1976 401.732 95.1976 401.772C95.1976 401.813 95.1892 401.852 95.1729 401.889C95.1566 401.926 95.1328 401.959 95.1031 401.987C95.0733 402.014 95.0381 402.035 94.9999 402.048C94.9616 402.061 94.9211 402.065 94.8808 402.062Z" fill="#AAC9F8"/>
<path d="M181.236 402.062H98.8587C98.8185 402.065 98.7779 402.061 98.7397 402.048C98.7014 402.035 98.6663 402.014 98.6365 401.987C98.6067 401.959 98.5829 401.926 98.5667 401.889C98.5504 401.852 98.542 401.813 98.542 401.772C98.542 401.732 98.5504 401.692 98.5667 401.655C98.5829 401.618 98.6067 401.585 98.6365 401.558C98.6663 401.531 98.7014 401.51 98.7397 401.497C98.7779 401.484 98.8185 401.479 98.8587 401.483H181.236C181.276 401.479 181.317 401.484 181.355 401.497C181.393 401.51 181.429 401.531 181.458 401.558C181.488 401.585 181.512 401.618 181.528 401.655C181.544 401.692 181.553 401.732 181.553 401.772C181.553 401.813 181.544 401.852 181.528 401.889C181.512 401.926 181.488 401.959 181.458 401.987C181.429 402.014 181.393 402.035 181.355 402.048C181.317 402.061 181.276 402.065 181.236 402.062Z" fill="#AAC9F8"/>
<path d="M185.325 410.716H74.4905C66.1987 410.716 59.4546 404.373 59.4546 396.576C59.4546 388.78 66.1987 382.439 74.4905 382.439H185.325C185.749 382.439 186.155 382.607 186.454 382.906C186.754 383.205 186.922 383.611 186.922 384.033C186.922 384.456 186.754 384.862 186.454 385.16C186.155 385.459 185.749 385.627 185.325 385.627C185.285 385.631 185.245 385.626 185.206 385.613C185.168 385.6 185.133 385.579 185.103 385.552C185.073 385.525 185.05 385.492 185.033 385.455C185.017 385.418 185.009 385.378 185.009 385.338C185.009 385.297 185.017 385.257 185.033 385.22C185.05 385.184 185.073 385.15 185.103 385.123C185.133 385.096 185.168 385.075 185.206 385.062C185.245 385.049 185.285 385.044 185.325 385.048C185.595 385.048 185.853 384.941 186.044 384.751C186.235 384.56 186.342 384.302 186.342 384.033C186.342 383.764 186.235 383.506 186.044 383.316C185.853 383.126 185.595 383.019 185.325 383.019H74.4905C66.5189 383.019 60.0372 389.102 60.0372 396.576C60.0372 404.051 66.5212 410.136 74.4905 410.136H185.325C185.595 410.136 185.853 410.029 186.044 409.839C186.235 409.649 186.342 409.391 186.342 409.122C186.342 408.853 186.235 408.594 186.044 408.404C185.853 408.214 185.595 408.107 185.325 408.107C185.285 408.111 185.245 408.106 185.206 408.093C185.168 408.08 185.133 408.059 185.103 408.032C185.073 408.005 185.05 407.971 185.033 407.934C185.017 407.898 185.009 407.858 185.009 407.817C185.009 407.777 185.017 407.737 185.033 407.7C185.05 407.663 185.073 407.63 185.103 407.603C185.133 407.576 185.168 407.555 185.206 407.542C185.245 407.529 185.285 407.524 185.325 407.528C185.749 407.528 186.155 407.696 186.454 407.994C186.754 408.293 186.922 408.699 186.922 409.122C186.922 409.544 186.754 409.95 186.454 410.249C186.155 410.548 185.749 410.716 185.325 410.716Z" fill="#21111D"/>
<path d="M167.759 391.386C167.759 391.386 171.25 400.066 169.238 406.458L166.403 402.082C166.403 402.082 164.466 404.402 163.278 406.458C163.278 406.458 161.113 392.185 156.915 391.386H167.759Z" fill="#7FC6A6"/>
<path d="M181.236 391.67H67.7708C67.6935 391.67 67.6194 391.64 67.5648 391.585C67.5102 391.53 67.4795 391.456 67.4795 391.379C67.4795 391.302 67.5102 391.228 67.5648 391.174C67.6194 391.119 67.6935 391.089 67.7708 391.089H181.236C181.313 391.089 181.388 391.119 181.442 391.174C181.497 391.228 181.528 391.302 181.528 391.379C181.528 391.456 181.497 391.53 181.442 391.585C181.388 391.64 181.313 391.67 181.236 391.67Z" fill="#AAC9F8"/>
<path d="M61.4668 358.872C61.4668 358.872 66.4187 371.304 62.2673 380.719L157.468 381.518L166.254 380.719L173.996 375.93V368.604L171.844 362.544L164.817 358.876L61.4668 358.872Z" fill="white"/>
<path d="M161.929 382.728H59.0722C58.9085 382.735 58.7451 382.709 58.5919 382.651C58.4386 382.593 58.2986 382.505 58.1803 382.392C58.062 382.279 57.9679 382.143 57.9036 381.993C57.8393 381.842 57.8062 381.681 57.8062 381.517C57.8062 381.353 57.8393 381.192 57.9036 381.041C57.9679 380.891 58.062 380.755 58.1803 380.642C58.2986 380.529 58.4386 380.441 58.5919 380.383C58.7451 380.325 58.9085 380.299 59.0722 380.306H161.929C168.137 380.306 173.187 375.626 173.187 369.872C173.187 364.118 168.137 359.438 161.929 359.438H59.0722C58.9085 359.445 58.7451 359.419 58.5919 359.361C58.4386 359.303 58.2986 359.215 58.1803 359.102C58.062 358.989 57.9679 358.853 57.9036 358.703C57.8393 358.552 57.8062 358.391 57.8062 358.227C57.8062 358.063 57.8393 357.902 57.9036 357.751C57.9679 357.601 58.062 357.465 58.1803 357.352C58.2986 357.239 58.4386 357.151 58.5919 357.093C58.7451 357.035 58.9085 357.009 59.0722 357.016H161.929C169.473 357.016 175.613 362.788 175.613 369.87C175.613 376.952 169.473 382.728 161.929 382.728Z" fill="#258D8C"/>
<path d="M142.599 370.165H92.1233C92.0507 370.159 91.9832 370.125 91.9339 370.072C91.8847 370.018 91.8574 369.948 91.8574 369.875C91.8574 369.803 91.8847 369.732 91.9339 369.679C91.9832 369.625 92.0507 369.592 92.1233 369.586H142.599C142.671 369.592 142.739 369.625 142.788 369.679C142.837 369.732 142.865 369.803 142.865 369.875C142.865 369.948 142.837 370.018 142.788 370.072C142.739 370.125 142.671 370.159 142.599 370.165Z" fill="#AAC9F8"/>
<path d="M169.489 370.165H120.45C120.409 370.169 120.369 370.164 120.33 370.151C120.292 370.138 120.257 370.117 120.227 370.09C120.198 370.062 120.174 370.029 120.157 369.992C120.141 369.956 120.133 369.916 120.133 369.875C120.133 369.835 120.141 369.795 120.157 369.758C120.174 369.721 120.198 369.688 120.227 369.661C120.257 369.634 120.292 369.613 120.33 369.6C120.369 369.587 120.409 369.582 120.45 369.586H169.489C169.561 369.592 169.629 369.625 169.678 369.679C169.727 369.732 169.754 369.803 169.754 369.875C169.754 369.948 169.727 370.018 169.678 370.072C169.629 370.125 169.561 370.159 169.489 370.165Z" fill="#AAC9F8"/>
<path d="M168.17 374.987H143.01C142.97 374.99 142.929 374.986 142.891 374.973C142.853 374.96 142.818 374.939 142.788 374.912C142.758 374.884 142.734 374.851 142.718 374.814C142.702 374.777 142.693 374.738 142.693 374.697C142.693 374.657 142.702 374.617 142.718 374.58C142.734 374.543 142.758 374.51 142.788 374.483C142.818 374.456 142.853 374.435 142.891 374.422C142.929 374.409 142.97 374.404 143.01 374.407H168.17C168.21 374.404 168.251 374.409 168.289 374.422C168.327 374.435 168.362 374.456 168.392 374.483C168.422 374.51 168.446 374.543 168.462 374.58C168.478 374.617 168.487 374.657 168.487 374.697C168.487 374.738 168.478 374.777 168.462 374.814C168.446 374.851 168.422 374.884 168.392 374.912C168.362 374.939 168.327 374.96 168.289 374.973C168.251 374.986 168.21 374.99 168.17 374.987Z" fill="#AAC9F8"/>
<path d="M168.17 365.341H62.8655C62.8253 365.344 62.7848 365.34 62.7465 365.327C62.7083 365.314 62.6731 365.293 62.6433 365.266C62.6136 365.238 62.5898 365.205 62.5735 365.168C62.5572 365.131 62.5488 365.092 62.5488 365.051C62.5488 365.011 62.5572 364.971 62.5735 364.934C62.5898 364.897 62.6136 364.864 62.6433 364.837C62.6731 364.81 62.7083 364.789 62.7465 364.776C62.7848 364.763 62.8253 364.758 62.8655 364.761H168.17C168.211 364.758 168.251 364.763 168.289 364.776C168.328 364.789 168.363 364.81 168.393 364.837C168.422 364.864 168.446 364.897 168.462 364.934C168.479 364.971 168.487 365.011 168.487 365.051C168.487 365.092 168.479 365.131 168.462 365.168C168.446 365.205 168.422 365.238 168.393 365.266C168.363 365.293 168.328 365.314 168.289 365.327C168.251 365.34 168.211 365.344 168.17 365.341Z" fill="#AAC9F8"/>
<path d="M161.929 383.019H59.072C58.6733 383.019 58.291 382.861 58.0091 382.579C57.7272 382.298 57.5688 381.916 57.5688 381.518C57.5688 381.12 57.7272 380.738 58.0091 380.457C58.291 380.175 58.6733 380.017 59.072 380.017C59.1446 380.024 59.2121 380.057 59.2613 380.111C59.3106 380.164 59.3379 380.234 59.3379 380.307C59.3379 380.38 59.3106 380.45 59.2613 380.504C59.2121 380.557 59.1446 380.59 59.072 380.597C58.8273 380.597 58.5925 380.694 58.4195 380.867C58.2464 381.039 58.1492 381.274 58.1492 381.518C58.1492 381.762 58.2464 381.997 58.4195 382.17C58.5925 382.342 58.8273 382.439 59.072 382.439H161.929C169.313 382.439 175.324 376.803 175.324 369.876C175.324 362.95 169.32 357.313 161.929 357.313H59.072C58.9472 357.307 58.8224 357.327 58.7052 357.37C58.588 357.414 58.4809 357.48 58.3904 357.566C58.2999 357.652 58.2278 357.756 58.1786 357.871C58.1293 357.985 58.1039 358.109 58.1039 358.234C58.1039 358.358 58.1293 358.482 58.1786 358.597C58.2278 358.711 58.2999 358.815 58.3904 358.901C58.4809 358.987 58.588 359.054 58.7052 359.097C58.8224 359.141 58.9472 359.16 59.072 359.154C59.1493 359.154 59.2233 359.184 59.278 359.239C59.3326 359.294 59.3633 359.368 59.3633 359.445C59.3633 359.522 59.3326 359.596 59.278 359.65C59.2233 359.705 59.1493 359.735 59.072 359.735C58.6831 359.721 58.315 359.556 58.0451 359.276C57.7752 358.996 57.6245 358.622 57.6245 358.234C57.6245 357.845 57.7752 357.472 58.0451 357.192C58.315 356.911 58.6831 356.747 59.072 356.732H161.929C169.633 356.732 175.904 362.628 175.904 369.876C175.904 377.125 169.633 383.019 161.929 383.019Z" fill="#21111D"/>
<path d="M123.045 374.696C123.045 374.696 119.554 383.378 121.566 389.77L124.401 385.392C124.401 385.392 126.338 387.712 127.514 389.768C127.514 389.768 129.68 375.493 133.878 374.694L123.045 374.696Z" fill="#4381C1"/>
<path d="M139.319 374.987H62.8655C62.8253 374.99 62.7848 374.986 62.7465 374.973C62.7083 374.96 62.6731 374.939 62.6433 374.912C62.6136 374.884 62.5898 374.851 62.5735 374.814C62.5572 374.777 62.5488 374.738 62.5488 374.697C62.5488 374.657 62.5572 374.617 62.5735 374.58C62.5898 374.543 62.6136 374.51 62.6433 374.483C62.6731 374.456 62.7083 374.435 62.7465 374.422C62.7848 374.409 62.8253 374.404 62.8655 374.407H139.319C139.392 374.414 139.459 374.447 139.509 374.501C139.558 374.554 139.585 374.624 139.585 374.697C139.585 374.77 139.558 374.84 139.509 374.894C139.459 374.947 139.392 374.981 139.319 374.987Z" fill="#AAC9F8"/>
<path d="M62.7051 303.718C62.7051 303.718 63.7524 289.122 69.4292 291.952C75.106 294.783 79.7311 313.386 80.3471 313.941C80.963 314.496 80.7807 331.495 80.7807 331.495L74.1788 328.165C74.1788 328.165 72.4266 287.539 62.7051 303.718Z" fill="#258D8C"/>
<path d="M69.0693 273.504C69.0693 273.504 81.7861 284.866 85.2571 304.344C88.7281 323.823 77.7614 329.555 77.7614 329.555C77.7614 329.555 76.2004 288.6 69.0693 273.504Z" fill="#7FC6A6"/>
<path d="M92.6593 332.174C92.6593 332.174 94.7895 290.709 105.523 272.731C105.523 272.731 86.6779 283.956 80.4296 313.42C80.076 315.078 79.8692 316.921 79.6024 318.697C79.3188 320.383 79.1849 322.092 79.2022 323.803C79.2778 326.689 79.678 329.168 79.7959 330.989C80.812 346.742 92.6593 332.174 92.6593 332.174Z" fill="#258D8C"/>
<path d="M92.297 314.574C93.0117 308.658 95.286 303.037 98.8877 298.286C101.498 294.863 104.52 292.261 106.879 294.117C112.125 298.244 113.172 323.865 113.172 323.865C113.172 323.865 107.251 306.125 104.66 307.295C102.07 308.465 99.6616 332.556 99.6616 332.556L89.9756 333.355L92.297 314.574Z" fill="#7FC6A6"/>
<path d="M79.0863 330.727C78.6883 321.674 79.8245 312.984 82.4661 304.901C84.5804 298.435 87.6639 292.326 91.6118 286.782C98.3381 277.322 105.376 272.647 105.445 272.6L105.618 272.862C105.547 272.907 98.5516 277.558 91.8586 286.975C85.6837 295.664 78.517 310.305 79.4065 330.709L79.0863 330.727Z" fill="#21111D"/>
<path d="M77.6035 329.552C77.6035 329.45 77.1988 319.178 75.9313 307.195C74.764 296.146 72.596 281.338 68.9248 273.562L69.2094 273.429C72.9028 281.245 75.073 296.088 76.2426 307.173C77.5101 319.161 77.9126 329.446 77.917 329.548L77.6035 329.552Z" fill="#21111D"/>
<path d="M74.0279 328.178C74.0279 328.112 73.7255 321.434 72.7427 314.667C71.4508 305.769 69.583 300.763 67.3416 300.188C66.0074 299.851 64.5043 301.076 62.8433 303.8L62.5742 303.638C64.3175 300.77 65.9474 299.509 67.4194 299.886C69.8276 300.501 71.7221 305.461 73.054 314.623C74.0391 321.405 74.337 328.098 74.3392 328.165L74.0279 328.178Z" fill="#21111D"/>
<path d="M90.1309 333.364L89.8218 333.326L92.141 314.547C92.8614 308.605 95.1462 302.96 98.7628 298.186C101.038 295.202 103.059 293.577 104.767 293.362C105.158 293.309 105.556 293.338 105.936 293.445C106.316 293.553 106.669 293.738 106.975 293.988C109.183 295.726 110.921 301.285 112.147 310.511C113.054 317.36 113.325 323.789 113.327 323.854L113.014 323.867C113.003 323.609 111.902 298.268 106.788 294.234C106.515 294.01 106.199 293.845 105.859 293.748C105.519 293.652 105.163 293.626 104.813 293.673C103.188 293.877 101.24 295.46 99.0163 298.375C95.4346 303.103 93.1713 308.695 92.4567 314.581L90.1309 333.364Z" fill="#21111D"/>
<path d="M100.208 310.179L98.1733 314.117L98.452 314.261L100.486 310.323L100.208 310.179Z" fill="#21111D"/>
<path d="M100.199 312.879L98.1636 316.568L98.4382 316.719L100.474 313.03L100.199 312.879Z" fill="#21111D"/>
<path d="M77.653 286.715L77.3677 286.845L79.107 290.657L79.3923 290.527L77.653 286.715Z" fill="#21111D"/>
<path d="M77.8919 289.71L77.6177 289.862L79.0984 292.53L79.3726 292.378L77.8919 289.71Z" fill="#21111D"/>
<path d="M67.9261 293.37L67.7837 293.649L70.7454 295.156L70.8878 294.877L67.9261 293.37Z" fill="#21111D"/>
<path d="M69.159 295.061L68.9961 295.329L70.7477 296.392L70.9106 296.125L69.159 295.061Z" fill="#21111D"/>
<path d="M70.8213 327.117C70.8213 327.117 71.375 357.431 79.5066 356.721H93.324C101.456 357.431 102.009 327.117 102.009 327.117C94.3135 325.956 78.5171 325.956 70.8213 327.117Z" fill="#31081F"/>
<path d="M98.7382 331.019L89.8521 340.387L90.0797 340.602L98.9658 331.234L98.7382 331.019Z" fill="#21111D"/>
<path d="M96.1458 337.015L91.2534 342.632L91.49 342.838L96.3824 337.221L96.1458 337.015Z" fill="#21111D"/>
<path d="M187.747 260.304L194.435 263.432L194.88 263.638L201.568 266.766L171.25 345.132C171.048 345.654 170.741 346.128 170.348 346.526C169.954 346.924 169.483 347.236 168.964 347.445C168.444 347.653 167.887 347.752 167.328 347.736C166.768 347.72 166.218 347.59 165.711 347.352L148.685 339.389C148.178 339.152 147.725 338.813 147.354 338.394C146.984 337.975 146.704 337.484 146.531 336.952C146.359 336.42 146.298 335.858 146.353 335.302C146.407 334.745 146.576 334.206 146.848 333.717L187.747 260.304Z" fill="#8C1759"/>
<path d="M202.07 268.967L185.836 261.375C185.36 261.152 184.992 260.75 184.813 260.256C184.634 259.762 184.658 259.218 184.882 258.742L188.57 250.881L208.394 260.153L204.706 268.013C204.483 268.489 204.08 268.856 203.586 269.035C203.091 269.214 202.546 269.19 202.07 268.967Z" fill="#F99247"/>
<path d="M189.806 263.625L200.597 268.671C201.051 268.885 201.543 269.007 202.044 269.031C202.545 269.054 203.046 268.979 203.519 268.81C203.991 268.64 204.425 268.379 204.796 268.042C205.168 267.704 205.469 267.297 205.682 266.844L208.746 260.313L208.079 260.004L205.015 266.531C204.667 267.27 204.039 267.842 203.27 268.12C202.5 268.398 201.652 268.36 200.91 268.014L190.117 262.966L189.806 263.625Z" fill="#21111D"/>
<g style="mix-blend-mode:multiply">
<path d="M244.134 247.171C259.759 231.571 259.759 206.278 244.134 190.678C228.508 175.077 203.174 175.077 187.549 190.678C171.924 206.278 171.924 231.571 187.549 247.171C203.174 262.771 228.508 262.771 244.134 247.171Z" fill="#D4EEF4"/>
</g>
<path d="M210.286 201.847C218.091 199.026 223.324 193.722 221.975 190.001C220.626 186.28 213.205 185.549 205.4 188.37C197.595 191.191 192.362 196.494 193.711 200.216C195.061 203.937 202.481 204.667 210.286 201.847Z" fill="#F3FFFE"/>
<path d="M200.422 268.2L170.482 346.029L171.161 346.289L201.101 268.46L200.422 268.2Z" fill="#21111D"/>
<path d="M248.478 207.324L249.189 207.164C249.169 207.075 247.117 198.208 240.155 192.922L239.71 193.502C246.461 198.623 248.458 207.237 248.478 207.324Z" fill="#21111D"/>
<path d="M244.515 210.405L245.227 210.245C245.207 210.156 243.157 201.29 236.192 196.004L235.748 196.583C242.498 201.705 244.497 210.318 244.515 210.405Z" fill="#21111D"/>
<path d="M198.869 255.096C191.703 251.744 185.693 246.346 181.6 239.584C177.507 232.823 175.513 225.001 175.873 217.109C176.232 209.216 178.927 201.607 183.618 195.244C188.309 188.881 194.784 184.049 202.225 181.36C209.666 178.671 217.739 178.245 225.422 180.137C233.105 182.028 240.054 186.152 245.39 191.987C250.726 197.821 254.209 205.104 255.399 212.915C256.589 220.726 255.432 228.714 252.075 235.868C247.573 245.462 239.439 252.878 229.461 256.484C219.483 260.089 208.478 259.59 198.869 255.096ZM257.836 238.563C268.701 215.409 258.708 187.843 235.516 176.996C212.324 166.149 184.714 176.126 173.847 199.281C162.98 222.435 172.975 250.001 196.17 260.85C219.364 271.699 246.972 261.72 257.836 238.563Z" fill="#FECC86"/>
<path d="M196.014 261.179C219.362 272.092 247.232 262.018 258.166 238.719C269.099 215.42 259.006 187.59 235.67 176.668C224.788 171.554 212.346 170.846 200.953 174.692L201.175 175.38C212.391 171.594 224.639 172.291 235.352 177.325C258.326 188.07 268.261 215.473 257.499 238.41C246.736 261.347 219.288 271.266 196.314 260.519C185.685 255.568 177.362 246.737 173.058 235.844L172.391 236.11C176.762 247.176 185.217 256.148 196.014 261.179Z" fill="#21111D"/>
<path d="M337.745 300.092L327.048 306.862L385.065 398.239L395.762 391.469L337.745 300.092Z" fill="#FEC786"/>
<path d="M334.138 299.141L330.046 301.767L388.563 392.647L392.655 390.02L334.138 299.141Z" fill="#F99247"/>
<path d="M389.689 381.91L378.992 388.68L380.699 391.369L391.396 384.599L389.689 381.91Z" fill="#4381C1"/>
<path d="M393.505 399.791C392.802 400.236 392.019 400.538 391.2 400.68C390.38 400.823 389.541 400.802 388.729 400.621C387.918 400.439 387.15 400.1 386.47 399.622C385.79 399.144 385.211 398.537 384.766 397.835L380.69 391.415L391.388 384.646L395.463 391.066C396.362 392.483 396.661 394.198 396.294 395.834C395.926 397.47 394.923 398.893 393.505 399.791Z" fill="#8C1759"/>
<path d="M323.811 290.001L327.041 306.902C327.326 307.319 327.762 307.61 328.258 307.713C328.754 307.816 329.27 307.722 329.697 307.451C330.125 307.181 330.43 306.755 330.549 306.264C330.668 305.773 330.591 305.255 330.335 304.819C330.899 305.707 332.278 305.852 333.414 305.132C334.55 304.413 335.013 303.108 334.448 302.215C334.585 302.431 334.763 302.618 334.973 302.765C335.182 302.912 335.418 303.016 335.668 303.072C335.917 303.128 336.175 303.134 336.427 303.09C336.679 303.047 336.92 302.954 337.137 302.817C337.353 302.68 337.54 302.502 337.687 302.293C337.834 302.085 337.939 301.849 337.995 301.6C338.051 301.35 338.057 301.092 338.013 300.841C337.969 300.589 337.876 300.349 337.739 300.133L323.811 290.001Z" fill="#F7D6B2"/>
<path d="M327.042 306.902C327.042 306.902 329.781 307.124 330.335 304.819L331.542 306.724L328.251 308.806L327.042 306.902Z" fill="#FEC786"/>
<path d="M334.448 302.215C334.448 302.215 337.188 302.437 337.739 300.133L338.949 302.038L335.658 304.12L334.448 302.215Z" fill="#FEC786"/>
<path d="M330.334 304.819C330.334 304.819 333.254 305.485 334.448 302.215L335.767 304.293L331.651 306.895L330.334 304.819Z" fill="#F99247"/>
<path d="M324.884 295.615C325.637 295.653 326.384 295.457 327.021 295.054C327.658 294.652 328.154 294.062 328.442 293.366L323.815 290.001L324.884 295.615Z" fill="#85ADD6"/>
<path d="M393.62 399.973C396.446 398.168 396.847 395.804 396.682 394.141C396.565 393.017 396.212 391.931 395.646 390.953L337.899 299.984L337.866 299.96L323.497 289.506L325.578 300.384L326.001 300.304L324.124 290.489L337.579 300.277L395.281 391.175C395.809 392.103 396.141 393.129 396.255 394.19C396.478 396.43 395.504 398.25 393.389 399.604L393.62 399.973Z" fill="black"/>
<path d="M338.725 324.828L338.36 325.058L371.711 377.667L372.075 377.436L338.725 324.828Z" fill="black"/>
<path d="M377.364 378.566L377.163 378.947L381.414 381.175L381.614 380.794L377.364 378.566Z" fill="black"/>
<path d="M387.077 394.417L386.876 394.798L389.292 396.064L389.493 395.683L387.077 394.417Z" fill="black"/>
<path d="M388.052 396.589L387.852 396.97L390.267 398.236L390.468 397.855L388.052 396.589Z" fill="black"/>
<path d="M377.921 381.013L377.721 381.395L381.971 383.623L382.172 383.241L377.921 381.013Z" fill="black"/>
<path d="M391.273 384.448L380.588 391.237L380.819 391.6L391.505 384.812L391.273 384.448Z" fill="black"/>
</g>
<defs>
<clipPath id="clip0_77_3809">
<rect width="581" height="444" fill="white"/>
</clipPath>
</defs>
</svg>
