<svg width="24" height="24" viewBox="0 0 24 24" fill="none" xmlns="http://www.w3.org/2000/svg">
<g clip-path="url(#clip0_48_2461)">
<rect width="24" height="24" rx="12" fill="#8C1759"/>
<path d="M10.3333 6C11.0406 6 11.7189 6.28095 12.219 6.78105C12.719 7.28115 13 7.95942 13 8.66667C13 9.37391 12.719 10.0522 12.219 10.5523C11.7189 11.0524 11.0406 11.3333 10.3333 11.3333C9.62609 11.3333 8.94781 11.0524 8.44771 10.5523C7.94762 10.0522 7.66667 9.37391 7.66667 8.66667C7.66667 7.95942 7.94762 7.28115 8.44771 6.78105C8.94781 6.28095 9.62609 6 10.3333 6ZM10.3333 12.6667C13.28 12.6667 15.6667 13.86 15.6667 15.3333V16.6667H5V15.3333C5 13.86 7.38667 12.6667 10.3333 12.6667ZM17 11.3333V8H18.3333V12H17M17 14.6667V13.3333H18.3333V14.6667H17Z" fill="white"/>
</g>
<defs>
<clipPath id="clip0_48_2461">
<rect width="24" height="24" fill="white"/>
</clipPath>
</defs>
</svg>
